<?xml version="1.0" encoding="utf-8"?>
<!-- Generator: Adobe Illustrator 19.2.1, SVG Export Plug-In . SVG Version: 6.00 Build 0)  -->
<svg version="1.1" id="Logo" xmlns="http://www.w3.org/2000/svg" xmlns:xlink="http://www.w3.org/1999/xlink" x="0px" y="0px"
	 viewBox="0 0 565.3 152.3" style="enable-background:new 0 0 565.3 152.3;" xml:space="preserve">
<style type="text/css">
	.st0{fill:#58595B;}
</style>
<g id="XMLID_462_">
	<path id="XMLID_477_" class="st0" d="M62.6,0h10.6l13.2,41.2L100-0.1h8.3l13.6,41.3L135.1,0h10.2l-19.4,55.9h-8.4L104,16.1L90.4,56
		H82L62.6,0z"/>
	<path id="XMLID_475_" class="st0" d="M172.2,33.7L150.1,0.1h11.5l15.6,24.6l15.7-24.6h11.2L182,33.5v22.1h-9.8L172.2,33.7
		L172.2,33.7z"/>
	<path id="XMLID_473_" class="st0" d="M209.5,0h9l29.8,38.4V0h9.6v55.5h-8.2l-30.6-39.4v39.5h-9.6V0z"/>
	<path id="XMLID_470_" class="st0" d="M269.6,0h20.7c17.5,0,29.5,12,29.5,27.6v0.2c0,15.6-12.1,27.8-29.5,27.8h-20.7V0z M290.3,46.7
		c11.7,0,19.3-7.9,19.3-18.7v-0.2c0-10.9-7.6-18.9-19.3-18.9h-10.9v37.8L290.3,46.7L290.3,46.7z"/>
	<path id="XMLID_468_" class="st0" d="M329,0h9.8v23.1h26.5V0h9.8v55.5h-9.8V32.1h-26.5v23.4H329V0z"/>
	<path id="XMLID_465_" class="st0" d="M406.7-0.4h9l24.4,55.9h-10.3l-5.6-13.4h-26.3l-5.7,13.4h-10L406.7-0.4z M420.7,33.5
		l-9.6-22.2l-9.5,22.2H420.7z"/>
	<path id="XMLID_463_" class="st0" d="M448.3,0h10.4l16.9,26.3L492.5,0h10.4v55.5h-9.8V15.7l-17.5,26.2h-0.3l-17.4-26v39.7h-9.6
		L448.3,0L448.3,0z"/>
</g>
<path id="XMLID_479_" class="st0" d="M0,92.3c0,0,76.8-24,282.1-24c206.8,0,283.2,23.8,283.2,23.8s-93.5-16.4-283.2-16.4
	C92.4,75.8,0,92.3,0,92.3z"/>
<g id="XMLID_443_">
	<path id="XMLID_459_" class="st0" d="M70.1,96.5h24.8c7,0,12.5,2.1,16.1,5.6c2.9,3,4.6,7.2,4.6,12v0.2c0,9.1-5.5,14.6-13.3,16.9
		l15,21.1h-11.5l-13.7-19.4h-0.2H79.8v19.4H70L70.1,96.5L70.1,96.5z M94.2,124.1c7,0,11.4-3.7,11.4-9.3v-0.2c0-6-4.3-9.2-11.5-9.2
		H79.9v18.7H94.2z"/>
	<path id="XMLID_457_" class="st0" d="M131,96.5h41.3v8.7h-31.5v14.5h27.9v8.7h-27.9v14.9h31.9v8.7H131V96.5z"/>
	<path id="XMLID_455_" class="st0" d="M184.5,96.5h10.6l13.3,41.3l13.7-41.4h8.3l13.7,41.4l13.3-41.3h10.3l-19.4,56.1h-8.4l-13.7-40
		l-13.7,40h-8.4L184.5,96.5z"/>
	<path id="XMLID_449_" class="st0" d="M338,96.5h24.8c7,0,12.5,2.1,16.1,5.6c2.9,3,4.6,7.2,4.6,12v0.2c0,9.1-5.5,14.6-13.3,16.9
		l15,21.1h-11.5L360,132.9h-0.2h-12.1v19.4h-9.8L338,96.5L338,96.5L338,96.5z M362.1,124.1c7,0,11.4-3.7,11.4-9.3v-0.2
		c0-6-4.3-9.2-11.5-9.2h-14.2v18.7H362.1z"/>
	<path id="XMLID_446_" class="st0" d="M399.9,96.5h20.7c17.5,0,29.6,12,29.6,27.7v0.2c0,15.7-12.1,27.8-29.6,27.8h-20.7V96.5z
		 M420.6,143.3c11.7,0,19.3-7.9,19.3-18.8v-0.2c0-10.9-7.6-18.9-19.3-18.9h-11v37.8h11V143.3z"/>
	<path id="XMLID_444_" class="st0" d="M461,143.5l5.8-6.8c5.2,4.5,10.4,7.1,17.2,7.1c5.9,0,9.6-2.7,9.6-6.8v-0.2
		c0-3.9-2.2-6-12.3-8.3c-11.6-2.8-18.1-6.2-18.1-16.3V112c0-9.3,7.8-15.8,18.6-15.8c7.9,0,14.2,2.4,19.8,6.8l-5.1,7.2
		c-4.9-3.7-9.8-5.6-14.8-5.6c-5.6,0-8.9,2.9-8.9,6.5v0.2c0,4.2,2.5,6.1,12.9,8.6c11.5,2.8,17.5,6.9,17.5,15.9v0.2
		c0,10.2-8,16.3-19.4,16.3C475.3,152.2,467.5,149.3,461,143.5z"/>
	<path id="XMLID_19_" class="st0" d="M290.7,96.1h9.1l24.6,56.2H314l-5.7-13.5h-26.4l-5.7,13.5h-10L290.7,96.1z M304.7,130.1
		l-9.7-22.3l-9.6,22.3H304.7z"/>
</g>
<path id="XMLID_14_" class="st0" d="M514,103.2L514,103.2c0-3.6,2.9-6.5,6.5-6.5s6.5,2.9,6.5,6.4l0,0c0,3.5-2.9,6.5-6.5,6.5
	C516.8,109.7,514,106.7,514,103.2 M526.3,103.2L526.3,103.2c0-3.2-2.5-5.8-5.8-5.8s-5.8,2.6-5.8,5.8l0,0c0,3.2,2.5,5.8,5.8,5.8
	S526.3,106.4,526.3,103.2 M517.9,99.6h3c0.9,0,1.6,0.3,2.1,0.7c0.4,0.3,0.6,0.8,0.6,1.4l0,0c0,1.1-0.6,1.8-1.6,2l1.8,2.6h-1.5
	l-1.6-2.3l0,0h-1.4v2.3H518L517.9,99.6L517.9,99.6z M520.8,102.9c0.8,0,1.3-0.4,1.3-1.1l0,0c0-0.7-0.5-1.1-1.3-1.1h-1.7v2.1h1.7
	V102.9z"/>
</svg>
